HIERARCHY
ROOT Hips
{
	OFFSET 0.000000 97.167313 0.000000
	CHANNELS 6 Xposition Yposition Zposition Xrotation Yrotation Zrotation
	JOINT Spine
	{
		OFFSET 0.000000 13.784798 0.064400
		CHANNELS 3 Xrotation Yrotation Zrotation
		JOINT Spine1
		{
			OFFSET 0.000000 12.037903 0.404700
			CHANNELS 3 Xrotation Yrotation Zrotation
			JOINT Spine2
			{
				OFFSET 0.000000 17.795601 0.420200
				CHANNELS 3 Xrotation Yrotation Zrotation
				JOINT Neck
				{
					OFFSET 0.000000 39.131302 11.954600
					CHANNELS 3 Xrotation Yrotation Zrotation
					JOINT Head
					{
						OFFSET 0.000000 14.456192 15.627699
						CHANNELS 3 Xrotation Yrotation Zrotation
						JOINT HeadTop_End
						{
							OFFSET 0.000000 15.703506 7.603401
							CHANNELS 3 Xrotation Yrotation Zrotation
							End Site
							{
								OFFSET 0.000000 17.447403 0.000000
							}
						}
					}
				}
				JOINT LeftShoulder
				{
					OFFSET 17.399500 24.608795 1.168800
					CHANNELS 3 Xrotation Yrotation Zrotation
					JOINT LeftArm
					{
						OFFSET 18.980635 5.765305 1.818600
						CHANNELS 3 Xrotation Yrotation Zrotation
						JOINT LeftForeArm
						{
							OFFSET 49.290169 0.000000 0.000000
							CHANNELS 3 Xrotation Yrotation Zrotation
							JOINT LeftHand
							{
								OFFSET 31.562012 0.000000 0.000000
								CHANNELS 3 Xrotation Yrotation Zrotation
								JOINT LeftHandThumb1
								{
									OFFSET 6.133995 -4.388519 7.076070
									CHANNELS 3 Xrotation Yrotation Zrotation
									JOINT LeftHandThumb2
									{
										OFFSET 6.037666 -3.485840 3.485847
										CHANNELS 3 Xrotation Yrotation Zrotation
										JOINT LeftHandThumb3
										{
											OFFSET 6.496506 -3.750763 3.750761
											CHANNELS 3 Xrotation Yrotation Zrotation
											JOINT LeftHandThumb4
											{
												OFFSET 5.616882 -3.242905 3.242910
												CHANNELS 3 Xrotation Yrotation Zrotation
												End Site
												{
													OFFSET -1.254608 7.132141 0.375429
												}
											}
										}
									}
								}
								JOINT LeftHandPinky1
								{
									OFFSET 18.920792 -0.453171 -11.426712
									CHANNELS 3 Xrotation Yrotation Zrotation
									JOINT LeftHandPinky2
									{
										OFFSET 4.919586 0.000000 0.000000
										CHANNELS 3 Xrotation Yrotation Zrotation
										JOINT LeftHandPinky3
										{
											OFFSET 5.233047 0.000000 0.000000
											CHANNELS 3 Xrotation Yrotation Zrotation
											JOINT LeftHandPinky4
											{
												OFFSET 5.571716 0.000000 0.000000
												CHANNELS 3 Xrotation Yrotation Zrotation
												End Site
												{
													OFFSET -3.459808 4.342407 -0.466164
												}
											}
										}
									}
								}
								JOINT LeftHandRing1
								{
									OFFSET 22.726120 -0.094986 -6.500475
									CHANNELS 3 Xrotation Yrotation Zrotation
									JOINT LeftHandRing2
									{
										OFFSET 6.408615 0.000000 0.000000
										CHANNELS 3 Xrotation Yrotation Zrotation
										JOINT LeftHandRing3
										{
											OFFSET 6.150223 0.000000 0.000000
											CHANNELS 3 Xrotation Yrotation Zrotation
											JOINT LeftHandRing4
											{
												OFFSET 6.145386 0.000000 0.000000
												CHANNELS 3 Xrotation Yrotation Zrotation
												End Site
												{
													OFFSET -3.671402 4.923981 -0.202372
												}
											}
										}
									}
								}
								JOINT LeftHandMiddle1
								{
									OFFSET 23.373947 0.000000 0.000001
									CHANNELS 3 Xrotation Yrotation Zrotation
									JOINT LeftHandMiddle2
									{
										OFFSET 6.996567 0.000000 0.000000
										CHANNELS 3 Xrotation Yrotation Zrotation
										JOINT LeftHandMiddle3
										{
											OFFSET 7.015945 0.000000 0.000000
											CHANNELS 3 Xrotation Yrotation Zrotation
											JOINT LeftHandMiddle4
											{
												OFFSET 7.721573 0.000000 0.000000
												CHANNELS 3 Xrotation Yrotation Zrotation
												End Site
												{
													OFFSET -4.651108 6.158463 0.251582
												}
											}
										}
									}
								}
								JOINT LeftHandIndex1
								{
									OFFSET 21.310577 -0.490082 6.209344
									CHANNELS 3 Xrotation Yrotation Zrotation
									JOINT LeftHandIndex2
									{
										OFFSET 7.536453 0.000000 0.000000
										CHANNELS 3 Xrotation Yrotation Zrotation
										JOINT LeftHandIndex3
										{
											OFFSET 7.512344 0.000000 0.000000
											CHANNELS 3 Xrotation Yrotation Zrotation
											JOINT LeftHandIndex4
											{
												OFFSET 10.212402 0.000000 0.000001
												CHANNELS 3 Xrotation Yrotation Zrotation
												End Site
												{
													OFFSET -5.180801 8.690506 1.388433
												}
											}
										}
									}
								}
							}
						}
					}
				}
				JOINT RightShoulder
				{
					OFFSET -17.399500 24.608795 1.168800
					CHANNELS 3 Xrotation Yrotation Zrotation
					JOINT RightArm
					{
						OFFSET -18.980635 5.765305 1.818600
						CHANNELS 3 Xrotation Yrotation Zrotation
						JOINT RightForeArm
						{
							OFFSET -49.290169 0.000000 0.000000
							CHANNELS 3 Xrotation Yrotation Zrotation
							JOINT RightHand
							{
								OFFSET -31.562012 0.000000 0.000000
								CHANNELS 3 Xrotation Yrotation Zrotation
								JOINT RightHandThumb1
								{
									OFFSET -6.133995 -4.388519 7.076070
									CHANNELS 3 Xrotation Yrotation Zrotation
									JOINT RightHandThumb2
									{
										OFFSET -6.037666 -3.485840 3.485847
										CHANNELS 3 Xrotation Yrotation Zrotation
										JOINT RightHandThumb3
										{
											OFFSET -6.496506 -3.750763 3.750761
											CHANNELS 3 Xrotation Yrotation Zrotation
											JOINT RightHandThumb4
											{
												OFFSET -5.616882 -3.242905 3.242910
												CHANNELS 3 Xrotation Yrotation Zrotation
												End Site
												{
													OFFSET 1.254608 7.132141 0.375429
												}
											}
										}
									}
								}
								JOINT RightHandIndex1
								{
									OFFSET -21.310577 -0.490082 6.209344
									CHANNELS 3 Xrotation Yrotation Zrotation
									JOINT RightHandIndex2
									{
										OFFSET -7.536453 0.000000 0.000000
										CHANNELS 3 Xrotation Yrotation Zrotation
										JOINT RightHandIndex3
										{
											OFFSET -7.512344 0.000000 0.000000
											CHANNELS 3 Xrotation Yrotation Zrotation
											JOINT RightHandIndex4
											{
												OFFSET -10.212402 0.000000 0.000001
												CHANNELS 3 Xrotation Yrotation Zrotation
												End Site
												{
													OFFSET 5.180801 8.690506 1.388433
												}
											}
										}
									}
								}
								JOINT RightHandMiddle1
								{
									OFFSET -23.373947 0.000000 0.000001
									CHANNELS 3 Xrotation Yrotation Zrotation
									JOINT RightHandMiddle2
									{
										OFFSET -6.996567 0.000000 0.000000
										CHANNELS 3 Xrotation Yrotation Zrotation
										JOINT RightHandMiddle3
										{
											OFFSET -7.015945 0.000000 0.000000
											CHANNELS 3 Xrotation Yrotation Zrotation
											JOINT RightHandMiddle4
											{
												OFFSET -7.721573 0.000000 0.000000
												CHANNELS 3 Xrotation Yrotation Zrotation
												End Site
												{
													OFFSET 4.651108 6.158463 0.251582
												}
											}
										}
									}
								}
								JOINT RightHandRing1
								{
									OFFSET -22.726120 -0.094986 -6.500475
									CHANNELS 3 Xrotation Yrotation Zrotation
									JOINT RightHandRing2
									{
										OFFSET -6.408615 0.000000 0.000000
										CHANNELS 3 Xrotation Yrotation Zrotation
										JOINT RightHandRing3
										{
											OFFSET -6.150223 0.000000 0.000000
											CHANNELS 3 Xrotation Yrotation Zrotation
											JOINT RightHandRing4
											{
												OFFSET -6.145386 0.000000 0.000000
												CHANNELS 3 Xrotation Yrotation Zrotation
												End Site
												{
													OFFSET 3.671402 4.923981 -0.202372
												}
											}
										}
									}
								}
								JOINT RightHandPinky1
								{
									OFFSET -18.920792 -0.453171 -11.426712
									CHANNELS 3 Xrotation Yrotation Zrotation
									JOINT RightHandPinky2
									{
										OFFSET -4.919586 0.000000 0.000000
										CHANNELS 3 Xrotation Yrotation Zrotation
										JOINT RightHandPinky3
										{
											OFFSET -5.233047 0.000000 0.000000
											CHANNELS 3 Xrotation Yrotation Zrotation
											JOINT RightHandPinky4
											{
												OFFSET -5.571716 0.000000 0.000000
												CHANNELS 3 Xrotation Yrotation Zrotation
												End Site
												{
													OFFSET 3.459808 4.342407 -0.466164
												}
											}
										}
									}
								}
							}
						}
					}
				}
			}
		}
	}
	JOINT LeftUpLeg
	{
		OFFSET 19.899099 -7.885101 -3.429500
		CHANNELS 3 Xrotation Yrotation Zrotation
		JOINT LeftLeg
		{
			OFFSET 1.745560 -36.997807 10.304700
			CHANNELS 3 Xrotation Yrotation Zrotation
			JOINT LeftFoot
			{
				OFFSET -1.745558 -29.803308 -13.615400
				CHANNELS 3 Xrotation Yrotation Zrotation
				JOINT LeftToeBase
				{
					OFFSET 1.181900 -18.539904 15.226099
					CHANNELS 3 Xrotation Yrotation Zrotation
					JOINT LeftToe_End
					{
						OFFSET -0.863701 1.402801 16.534700
						CHANNELS 3 Xrotation Yrotation Zrotation
						End Site
						{
							OFFSET 0.000000 16.616566 0.000000
						}
					}
				}
			}
		}
	}
	JOINT RightUpLeg
	{
		OFFSET -19.899099 -7.885101 -3.429500
		CHANNELS 3 Xrotation Yrotation Zrotation
		JOINT RightLeg
		{
			OFFSET -1.745560 -36.997807 10.304700
			CHANNELS 3 Xrotation Yrotation Zrotation
			JOINT RightFoot
			{
				OFFSET 1.745558 -29.803308 -13.615400
				CHANNELS 3 Xrotation Yrotation Zrotation
				JOINT RightToeBase
				{
					OFFSET -1.181900 -18.539904 15.226099
					CHANNELS 3 Xrotation Yrotation Zrotation
					JOINT RightToe_End
					{
						OFFSET 0.863701 1.402801 16.534700
						CHANNELS 3 Xrotation Yrotation Zrotation
						End Site
						{
							OFFSET 0.000000 16.616566 0.000000
						}
					}
				}
			}
		}
	}
}
MOTION
Frames: 6
Frame Time: 0.033333
1.884611 73.190903 -8.100052 -26.050160 -46.800480 -5.187634 15.177848 3.128528 13.649305 5.206237 0.811750 5.317106 5.186269 0.982400 5.300906 6.892912 10.656264 -1.107004 6.730744 23.251154 -9.393405 -0.000000 0.000000 -0.000002 0.043770 -0.614570 12.494775 -25.273155 15.340999 -75.173800 -0.000092 -99.666558 -0.000136 36.503594 -7.414573 7.867864 -0.053295 5.013283 7.154761 -0.966477 24.316804 1.395920 2.118658 48.833124 18.258358 0.000000 -0.000004 -0.000001 8.174560 7.083503 -83.174451 8.017685 2.700452 -99.510699 2.519574 5.327463 -50.597847 -0.000000 0.000002 -0.000002 5.344476 6.757544 -83.942478 8.136920 6.766183 -100.539101 2.972990 5.680463 -55.386270 -0.000005 0.000002 0.000003 5.692849 6.778310 -80.117231 7.476699 6.855494 -94.976485 2.513071 5.335185 -50.596419 -0.000003 -0.000003 0.000004 6.781435 6.908459 -83.985556 6.728824 6.879510 -88.728180 4.720675 6.534744 -71.659947 -0.000002 -0.000003 -0.000004 2.196395 -5.470461 30.226548 -2.591240 69.322643 29.672702 -0.000062 103.830289 0.000085 -18.159405 -2.773843 -4.096563 -4.787143 -7.380658 -0.969366 17.294864 -25.325365 -0.358851 8.806733 -41.914094 -4.358197 0.000002 0.000000 0.000001 7.105257 -6.974231 86.153930 6.794378 -6.946520 88.728010 4.766464 -6.598379 71.657482 0.000000 -0.000001 -0.000001 6.699176 -6.943805 88.026064 8.101398 -6.852337 99.576119 2.550195 -5.371414 50.593612 -0.000000 0.000001 -0.000002 5.894430 -6.916551 88.045250 8.096937 -6.853056 99.538710 3.013417 -5.718820 55.383648 -0.000001 -0.000002 -0.000003 4.179019 -6.668966 83.200624 8.100954 -6.852401 99.572663 2.543876 -5.379257 50.593848 0.000000 0.000000 0.000004 -19.743497 8.448819 15.857505 36.391272 -11.351630 3.065506 1.046517 0.004460 -22.533738 -0.457771 -0.000004 0.000004 -0.000000 -0.000000 0.000000 3.344066 -16.377895 -34.852031 65.652735 8.514386 -2.244172 -55.183899 -8.860511 11.186063 -1.052429 0.000011 -0.000005 0.000000 0.000000 0.000000 
2.008000 73.455681 -7.882736 -25.371098 -47.573589 -5.732709 15.854198 2.899055 13.130543 5.461199 0.725430 5.120515 5.444388 0.888516 5.105800 6.894331 10.878686 -1.607357 5.323881 23.944195 -9.307548 0.000000 -0.000000 -0.000001 0.306522 -1.917175 11.390805 -25.559647 14.365372 -74.220141 -0.000022 -96.128280 -0.000068 35.910167 -7.480012 8.753737 -0.053296 5.013279 7.154764 -0.966478 24.316804 1.395923 2.118655 48.833124 18.258352 -0.000000 0.000004 -0.000004 8.174559 7.083505 -83.174451 8.017681 2.700452 -99.510699 2.519573 5.327463 -50.597847 0.000003 0.000003 -0.000007 5.344476 6.757547 -83.942472 8.136926 6.766176 -100.539101 2.972992 5.680460 -55.386267 -0.000002 0.000002 0.000002 5.692850 6.778308 -80.117231 7.476697 6.855494 -94.976485 2.513068 5.335182 -50.596412 -0.000002 0.000000 0.000004 6.781440 6.908467 -83.985563 6.728827 6.879516 -88.728173 4.720669 6.534748 -71.659954 0.000001 0.000001 0.000001 2.014658 -5.140253 28.533960 -5.836529 68.710590 34.705202 -0.000027 104.335354 0.000037 -18.293243 -2.249072 -6.466988 -4.787143 -7.380655 -0.969367 17.294862 -25.325370 -0.358852 8.806735 -41.914094 -4.358198 0.000000 -0.000001 -0.000000 7.105263 -6.974239 86.153937 6.794375 -6.946520 88.728016 4.766468 -6.598379 71.657482 -0.000002 -0.000001 0.000001 6.699173 -6.943803 88.026064 8.101398 -6.852337 99.576126 2.550195 -5.371418 50.593615 -0.000000 -0.000000 -0.000004 5.894429 -6.916557 88.045257 8.096942 -6.853055 99.538710 3.013418 -5.718814 55.383648 0.000003 0.000001 -0.000003 4.179015 -6.668970 83.200617 8.100951 -6.852400 99.572670 2.543874 -5.379262 50.593848 0.000002 -0.000000 0.000006 -20.134995 8.290080 16.637607 36.898669 -11.505615 3.272898 0.367795 0.746058 -22.609938 -0.748051 0.000020 -0.000002 -0.000000 -0.000001 0.000000 2.350353 -15.843910 -34.056795 64.985070 8.889196 -2.146693 -54.026120 -8.544226 11.038924 -0.853170 -0.000017 -0.000002 -0.000000 -0.000000 0.000000 
2.110011 73.777313 -7.607512 -24.644798 -48.392795 -6.176792 16.538026 2.652270 12.542195 5.713104 0.639178 4.901488 5.698976 0.796462 4.887942 6.901482 11.105565 -2.099558 3.525278 24.749699 -9.330601 -0.000000 0.000000 -0.000000 0.512846 -3.049544 10.098449 -25.298022 13.027636 -73.406905 0.000505 -93.328053 0.000341 34.443814 -7.931076 10.564283 -0.053300 5.013282 7.154759 -0.966477 24.316802 1.395922 2.118658 48.833127 18.258356 -0.000000 -0.000000 0.000003 8.174559 7.083507 -83.174458 8.017684 2.700448 -99.510699 2.519574 5.327458 -50.597850 -0.000002 -0.000004 -0.000001 5.344468 6.757542 -83.942472 8.136926 6.766181 -100.539101 2.972991 5.680463 -55.386270 -0.000002 -0.000001 0.000003 5.692848 6.778309 -80.117231 7.476698 6.855496 -94.976492 2.513066 5.335182 -50.596423 -0.000000 0.000000 0.000006 6.781434 6.908458 -83.985556 6.728826 6.879516 -88.728173 4.720677 6.534745 -71.659954 -0.000000 0.000001 -0.000001 1.891524 -4.899126 27.333592 -8.609582 68.193059 38.936972 0.000135 104.743847 -0.000110 -18.827201 -1.483670 -8.295410 -4.787145 -7.380660 -0.969364 17.294864 -25.325370 -0.358851 8.806734 -41.914101 -4.358197 -0.000000 -0.000003 0.000001 7.105258 -6.974234 86.153937 6.794373 -6.946524 88.728003 4.766468 -6.598376 71.657475 0.000001 0.000000 0.000001 6.699173 -6.943810 88.026064 8.101400 -6.852335 99.576119 2.550193 -5.371417 50.593612 -0.000000 -0.000001 -0.000007 5.894429 -6.916559 88.045250 8.096946 -6.853058 99.538710 3.013419 -5.718820 55.383651 -0.000004 -0.000003 -0.000005 4.179019 -6.668971 83.200617 8.100954 -6.852396 99.572656 2.543874 -5.379256 50.593848 0.000000 -0.000000 0.000002 -20.449651 8.222823 17.354100 37.379976 -11.542432 3.371771 -0.333967 1.503583 -22.448542 -0.762608 -0.000009 0.000005 -0.000000 0.000003 0.000000 1.235883 -15.486199 -33.383615 64.244534 9.356049 -2.065798 -52.822170 -8.120928 10.710070 -0.764068 -0.000055 0.000003 -0.000000 0.000002 0.000000 
2.205510 74.152496 -7.283932 -23.802011 -49.033470 -6.416464 17.189964 2.398183 11.861478 5.947105 0.555443 4.653891 5.935113 0.708446 4.641199 6.904010 11.306429 -2.483226 1.336652 25.569056 -9.331373 -0.000000 0.000000 -0.000000 0.676269 -4.033634 8.770725 -24.420978 11.478637 -72.960251 -0.000814 -91.418202 -0.001069 32.574897 -8.679680 12.534321 -0.053299 5.013279 7.154760 -0.966475 24.316800 1.395921 2.118657 48.833134 18.258356 -0.000000 -0.000000 -0.000002 8.174551 7.083502 -83.174451 8.017681 2.700445 -99.510699 2.519579 5.327460 -50.597847 -0.000000 -0.000003 -0.000003 5.344473 6.757539 -83.942472 8.136922 6.766181 -100.539101 2.972989 5.680455 -55.386267 -0.000001 -0.000002 0.000003 5.692846 6.778307 -80.117224 7.476696 6.855491 -94.976492 2.513069 5.335185 -50.596423 0.000000 0.000001 0.000009 6.781431 6.908450 -83.985556 6.728827 6.879515 -88.728173 4.720673 6.534750 -71.659947 -0.000000 -0.000000 -0.000001 1.798799 -4.742791 26.431452 -11.210189 67.562121 42.750806 -0.000024 105.123237 0.000041 -19.584111 -0.627243 -9.178885 -4.787141 -7.380655 -0.969364 17.294859 -25.325372 -0.358851 8.806733 -41.914098 -4.358198 0.000001 0.000001 0.000002 7.105258 -6.974233 86.153937 6.794379 -6.946527 88.728003 4.766469 -6.598383 71.657482 0.000000 -0.000002 0.000003 6.699175 -6.943809 88.026064 8.101403 -6.852336 99.576119 2.550194 -5.371417 50.593612 -0.000001 0.000001 -0.000006 5.894431 -6.916558 88.045250 8.096940 -6.853058 99.538717 3.013417 -5.718815 55.383648 -0.000002 -0.000003 -0.000002 4.179017 -6.668967 83.200617 8.100948 -6.852397 99.572663 2.543879 -5.379259 50.593848 0.000000 -0.000004 0.000005 -20.755135 8.088014 17.857190 37.693734 -11.545545 3.459081 -0.913371 2.202362 -22.235005 -0.751239 -0.000030 0.000009 -0.000000 0.000000 0.000000 0.255255 -15.359354 -32.811573 63.284401 9.777908 -1.953298 -51.574673 -7.782073 10.492136 -0.726437 0.000015 -0.000006 -0.000000 -0.000000 -0.000000 
2.272808 74.537560 -6.841816 -22.704782 -49.711063 -6.468630 17.797607 2.164567 11.102979 6.162426 0.484085 4.376436 6.152180 0.632436 4.364414 6.884905 11.474327 -2.776614 -1.107204 26.291468 -9.176563 -0.000000 -0.000001 0.000002 0.814780 -4.968784 7.414631 -23.248731 9.857471 -72.820021 -0.021591 -90.124865 -0.023049 30.870317 -9.397725 13.956845 -0.053298 5.013286 7.154760 -0.966475 24.316807 1.395918 2.118655 48.833127 18.258352 0.000001 0.000002 0.000000 8.174559 7.083507 -83.174458 8.017679 2.700452 -99.510699 2.519576 5.327463 -50.597847 0.000001 -0.000002 -0.000004 5.344473 6.757548 -83.942478 8.136926 6.766181 -100.539101 2.972990 5.680459 -55.386267 -0.000001 -0.000001 0.000003 5.692851 6.778317 -80.117231 7.476702 6.855492 -94.976492 2.513070 5.335187 -50.596423 0.000001 -0.000000 0.000004 6.781431 6.908462 -83.985563 6.728825 6.879509 -88.728173 4.720674 6.534742 -71.659954 -0.000001 0.000000 -0.000004 1.702745 -4.608334 25.452389 -13.982633 66.596537 46.683984 0.000116 105.535766 -0.000114 -20.266831 0.088399 -9.181104 -4.787141 -7.380657 -0.969365 17.294864 -25.325372 -0.358852 8.806732 -41.914098 -4.358197 -0.000000 -0.000003 -0.000001 7.105261 -6.974228 86.153930 6.794379 -6.946521 88.728016 4.766464 -6.598381 71.657475 0.000003 -0.000003 -0.000001 6.699174 -6.943807 88.026064 8.101406 -6.852333 99.576119 2.550194 -5.371419 50.593605 0.000001 -0.000000 -0.000004 5.894429 -6.916553 88.045257 8.096947 -6.853056 99.538710 3.013418 -5.718818 55.383651 0.000001 -0.000002 -0.000003 4.179018 -6.668962 83.200617 8.100953 -6.852396 99.572670 2.543876 -5.379261 50.593844 0.000002 0.000004 0.000005 -21.148626 8.036977 18.437944 37.991100 -11.591040 3.426125 -1.561224 2.907495 -22.053236 -0.709578 0.000036 0.000004 -0.000000 -0.000002 0.000000 -0.721588 -15.184728 -32.247136 62.165404 10.187242 -1.821523 -50.285366 -7.516354 10.383555 -0.714388 0.000022 0.000005 -0.000000 0.000000 -0.000000 
2.400768 74.925957 -6.445408 -22.132067 -50.355204 -6.942470 18.406689 1.990231 10.276821 6.379973 0.437316 4.071536 6.371143 0.579490 4.060006 6.819692 11.613363 -3.040670 -3.662389 26.856236 -8.840127 -0.000000 -0.000001 0.000002 0.935467 -5.944853 6.021003 -22.163043 8.261065 -72.778425 0.002438 -88.992836 0.002360 29.829970 -9.767294 14.566326 -0.053297 5.013286 7.154764 -0.966478 24.316804 1.395924 2.118660 48.833134 18.258358 -0.000000 -0.000003 -0.000003 8.174557 7.083507 -83.174458 8.017682 2.700449 -99.510699 2.519578 5.327460 -50.597847 0.000001 0.000002 -0.000002 5.344473 6.757544 -83.942472 8.136925 6.766180 -100.539107 2.972991 5.680460 -55.386270 -0.000001 0.000001 0.000005 5.692848 6.778311 -80.117224 7.476702 6.855491 -94.976485 2.513067 5.335189 -50.596416 -0.000001 0.000002 0.000009 6.781432 6.908459 -83.985556 6.728830 6.879514 -88.728173 4.720674 6.534745 -71.659947 0.000001 0.000001 -0.000001 1.599969 -4.467678 24.296614 -16.689793 65.371324 50.498222 -0.000005 106.054601 0.000030 -20.709825 0.485102 -8.849037 -4.787143 -7.380654 -0.969367 17.294862 -25.325372 -0.358851 8.806736 -41.914098 -4.358196 -0.000001 0.000001 0.000003 7.105261 -6.974233 86.153943 6.794375 -6.946524 88.728010 4.766464 -6.598378 71.657489 -0.000000 -0.000002 0.000003 6.699175 -6.943803 88.026064 8.101400 -6.852339 99.576119 2.550195 -5.371418 50.593612 0.000002 0.000001 -0.000004 5.894430 -6.916551 88.045250 8.096939 -6.853057 99.538710 3.013418 -5.718818 55.383648 -0.000000 -0.000001 -0.000003 4.179019 -6.668966 83.200617 8.100945 -6.852398 99.572670 2.543876 -5.379261 50.593851 0.000001 -0.000001 -0.000001 -21.317536 8.136928 19.182176 38.294678 -11.414871 3.368440 -2.179628 3.168622 -21.818484 -0.662457 -0.000006 0.000004 -0.000000 -0.000004 -0.000000 -1.213762 -14.826806 -31.448670 61.042773 10.269598 -1.864312 -48.990348 -7.418490 10.534780 -0.764851 0.000024 0.000004 -0.000000 -0.000000 -0.000000 
